<svg width="22" height="28" viewBox="0 0 22 28" fill="none" xmlns="http://www.w3.org/2000/svg">
<path d="M16.2861 16.474L17.9721 14.7705L15.5753 14.7705L2.18887 14.7705C1.77621 14.7705 1.42419 14.4297 1.42419 13.9876C1.42419 13.5455 1.77621 13.2047 2.18887 13.2047L15.5753 13.2047L17.9721 13.2047L16.2861 11.5012L8.06822 3.19853C7.76476 2.89194 7.76476 2.39065 8.06822 2.08406L7.37209 1.39505L8.06822 2.08406C8.36603 1.78318 8.84458 1.78318 9.14239 2.08406L20.3727 13.4304C20.6762 13.7369 20.6762 14.2382 20.3727 14.5448L9.14238 25.8911C8.84457 26.192 8.36602 26.192 8.06821 25.8911C7.76476 25.5845 7.76476 25.0832 8.06821 24.7766L16.2861 16.474Z" fill="#1E282F" stroke="#E6E6E0" stroke-width="2"/>
</svg>
