<svg width="164" height="67" viewBox="0 0 164 67" fill="none" xmlns="http://www.w3.org/2000/svg">
<path d="M77.3128 0.828598H61.3398V66.4476H77.3128V0.828598Z" fill="#585E64"/>
<path d="M50.8377 0.828598H34.8647V66.4476H50.8377V0.828598Z" fill="#1E282F"/>
<path d="M50.8376 66.5212H34.8646L0.476074 0.828598H16.449L50.8376 66.5212Z" fill="#585E64"/>
<path d="M103.788 0.888397H87.8149V66.5074H103.788V0.888397Z" fill="#1E282F"/>
<path d="M87.8149 0.828598H103.783L138.172 66.5212H122.203L87.8149 0.828598Z" fill="#585E64"/>
<path d="M141.653 1.675H144.493C144.74 1.675 144.864 1.7946 144.864 2.0384V26.7404C144.864 26.9842 144.74 27.1038 144.493 27.1038H141.653C141.406 27.1038 141.278 26.9842 141.278 26.7404V8.7222C141.278 8.6532 141.259 8.6164 141.223 8.6164C141.186 8.6164 141.14 8.6394 141.09 8.69L137.504 15.1944C137.431 15.3646 137.316 15.4474 137.165 15.4474C137.019 15.4474 136.905 15.3646 136.832 15.1944L133.282 8.7268C133.232 8.6808 133.186 8.6578 133.149 8.6578C133.113 8.6578 133.094 8.6946 133.094 8.7636V26.7496C133.094 26.9934 132.971 27.113 132.719 27.113H129.883C129.632 27.113 129.508 26.9934 129.508 26.7496V2.0476C129.508 1.8038 129.632 1.6842 129.883 1.6842H132.719C132.893 1.6842 133.044 1.767 133.168 1.9372L137.092 8.7682C137.115 8.7912 137.152 8.805 137.207 8.805C137.257 8.805 137.294 8.7912 137.316 8.7682L141.204 1.9372C141.305 1.7578 141.456 1.675 141.653 1.675Z" fill="#1E282F"/>
<path d="M149.292 26.9796C149.232 26.8922 149.223 26.791 149.273 26.6714L154.47 14.4998C154.52 14.4262 154.52 14.3526 154.47 14.279L149.273 2.112L149.237 1.9648C149.237 1.7716 149.347 1.675 149.575 1.675H152.489C152.69 1.675 152.828 1.7716 152.901 1.9648L156.304 10.7186C156.327 10.7922 156.363 10.8244 156.414 10.8244C156.464 10.8244 156.501 10.7922 156.528 10.7186L159.89 1.9648C159.963 1.7716 160.1 1.675 160.302 1.675H163.215C163.339 1.675 163.435 1.7164 163.494 1.7992C163.554 1.8866 163.563 1.9878 163.513 2.1074L158.317 14.3204C158.294 14.3894 158.294 14.4676 158.317 14.5412L163.513 26.676L163.549 26.8232C163.549 27.0164 163.44 27.113 163.215 27.113H160.338C160.137 27.113 160 27.0164 159.927 26.8232L156.528 18.1062C156.505 18.0326 156.464 17.9958 156.414 17.9958C156.363 17.9958 156.327 18.0326 156.304 18.1062L152.901 26.8232C152.828 27.0164 152.69 27.113 152.489 27.113H149.575C149.447 27.1084 149.356 27.067 149.292 26.9796Z" fill="#1E282F"/>
</svg>
