<?xml version="1.0" encoding="UTF-8" standalone="no"?>
<!DOCTYPE svg PUBLIC "-//W3C//DTD SVG 1.1//EN" "http://www.w3.org/Graphics/SVG/1.1/DTD/svg11.dtd">
<svg width="100%" height="100%" viewBox="0 0 14 19" version="1.1" xmlns="http://www.w3.org/2000/svg" xmlns:xlink="http://www.w3.org/1999/xlink" xml:space="preserve" xmlns:serif="http://www.serif.com/" style="fill-rule:evenodd;clip-rule:evenodd;stroke-linejoin:round;stroke-miterlimit:2;">
    <path d="M6.166,15.57L6.166,1.418C6.166,0.958 6.54,0.585 7,0.585C7.46,0.585 7.833,0.958 7.833,1.418L7.833,15.57L11.972,11.432C12.297,11.106 12.825,11.106 13.151,11.432C13.476,11.757 13.476,12.285 13.151,12.61L7.589,18.171C7.433,18.328 7.221,18.416 7,18.416C6.778,18.416 6.568,18.328 6.411,18.171L0.849,12.61C0.524,12.285 0.524,11.757 0.849,11.432C1.175,11.106 1.703,11.106 2.028,11.432L6.166,15.57Z" style="fill:rgb(30,40,47);"/>
</svg>
