<svg width="164" height="67" viewBox="0 0 164 67" fill="none" xmlns="http://www.w3.org/2000/svg">
<path d="M77.3283 0.828598H61.3524V66.4476H77.3283V0.828598Z" fill="#EFE427"/>
<path d="M50.8482 0.828598H34.8723V66.4476H50.8482V0.828598Z" fill="#D3CB33"/>
<path d="M50.8482 66.5212H34.8723L0.477478 0.828598H16.4534L50.8482 66.5212Z" fill="#EFE427"/>
<path d="M103.808 0.888397H87.8325V66.5074H103.808V0.888397Z" fill="#D3CB33"/>
<path d="M87.8325 0.828598H103.804L138.199 66.5212H122.227L87.8325 0.828598Z" fill="#EFE427"/>
<path d="M141.68 1.675H144.521C144.768 1.675 144.892 1.7946 144.892 2.0384V26.7404C144.892 26.9842 144.768 27.1038 144.521 27.1038H141.68C141.433 27.1038 141.305 26.9842 141.305 26.7404V8.7222C141.305 8.6532 141.287 8.6164 141.25 8.6164C141.214 8.6164 141.168 8.6394 141.118 8.69L137.531 15.1944C137.458 15.3646 137.343 15.4474 137.192 15.4474C137.046 15.4474 136.931 15.3646 136.858 15.1944L133.308 8.7268C133.258 8.6808 133.212 8.6578 133.175 8.6578C133.139 8.6578 133.12 8.6946 133.12 8.7636V26.7496C133.12 26.9934 132.997 27.113 132.745 27.113H129.909C129.657 27.113 129.534 26.9934 129.534 26.7496V2.0476C129.534 1.8038 129.657 1.6842 129.909 1.6842H132.745C132.919 1.6842 133.07 1.767 133.194 1.9372L137.119 8.7682C137.142 8.7912 137.178 8.805 137.233 8.805C137.284 8.805 137.32 8.7912 137.343 8.7682L141.232 1.9372C141.333 1.7578 141.484 1.675 141.68 1.675Z" fill="#EFE427"/>
<path d="M149.321 26.9796C149.261 26.8922 149.252 26.791 149.302 26.6714L154.499 14.4998C154.55 14.4262 154.55 14.3526 154.499 14.279L149.302 2.112L149.266 1.9648C149.266 1.7716 149.375 1.675 149.604 1.675H152.518C152.72 1.675 152.857 1.7716 152.93 1.9648L156.334 10.7186C156.357 10.7922 156.393 10.8244 156.444 10.8244C156.494 10.8244 156.531 10.7922 156.558 10.7186L159.921 1.9648C159.994 1.7716 160.131 1.675 160.333 1.675H163.247C163.37 1.675 163.466 1.7164 163.526 1.7992C163.585 1.8866 163.595 1.9878 163.544 2.1074L158.347 14.3204C158.324 14.3894 158.324 14.4676 158.347 14.5412L163.544 26.676L163.581 26.8232C163.581 27.0164 163.471 27.113 163.247 27.113H160.369C160.168 27.113 160.031 27.0164 159.957 26.8232L156.558 18.1062C156.535 18.0326 156.494 17.9958 156.444 17.9958C156.393 17.9958 156.357 18.0326 156.334 18.1062L152.93 26.8232C152.857 27.0164 152.72 27.113 152.518 27.113H149.604C149.476 27.1084 149.385 27.067 149.321 26.9796Z" fill="#EFE427"/>
</svg>
